<svg width="274" height="80" viewBox="0 0 274 80" fill="none" xmlns="http://www.w3.org/2000/svg">
<path d="M115.525 63.6364V45H97.7569V63.6364H85V16.3636H97.7569V35H115.525V16.3636H128.282V63.6364H115.525Z" fill="black"/>
<path d="M146.086 30.9091H133.329C134.058 18.8182 143.808 15 154.743 15C166.133 15 175.245 19.0909 175.245 31.3636V63.6364H162.488V54.5455H162.032C162.032 54.5455 159.116 65 146.997 65C138.341 65 131.963 61 131.963 52.2727C131.963 43.4545 139.252 39.4545 147.089 37.4545C155.016 35.4545 162.488 34.8182 162.488 29.5455C162.488 25.8182 159.754 23.6364 154.743 23.6364C149.275 23.6364 146.268 25.8182 146.086 30.9091ZM162.488 39.8182C160.392 41.7273 156.109 42.7273 152.465 43.6364C148.364 44.6364 144.902 46.7273 144.902 50.9091C144.902 54.5455 147.453 56.8182 151.553 56.8182C160.21 56.8182 162.488 46.8182 162.488 39.8182Z" fill="black"/>
<path d="M215.761 53.6364V63.6364H179.769V16.3636H192.526V53.6364H215.761Z" fill="black"/>
<path d="M255.359 53.6364V63.6364H219.367V16.3636H232.124V53.6364H255.359Z" fill="black"/>
<path d="M259.421 57.2727C259.421 53.2727 262.701 50 266.71 50C270.72 50 274 53.2727 274 57.2727C274 61.2727 270.72 64.5455 266.71 64.5455C262.701 64.5455 259.421 61.2727 259.421 57.2727Z" fill="#FF4400"/>
<circle cx="40" cy="40" r="40" fill="#FF4400"/>
<path d="M24.9973 66.5446C25.0578 66.497 25.1186 66.4536 25.1748 66.4046C25.2936 66.3021 25.4096 66.1946 25.5281 66.0924C25.592 66.0364 25.6636 66.0021 25.7517 66.029C25.8677 66.147 25.8953 66.2765 25.8247 66.4225C25.7852 66.5069 25.7371 66.587 25.6811 66.6616C25.4798 66.9206 25.4694 67.208 25.5438 67.509C25.5662 67.5994 25.6004 67.6865 25.629 67.7751C25.6559 67.858 25.6951 67.9393 25.7059 68.0243C25.73 68.2091 25.7891 68.3667 25.926 68.5042C25.9872 68.5662 25.9987 68.6835 26.02 68.7783C26.0641 68.9768 26.0997 69.1774 26.1416 69.3927C26.21 69.4332 26.2809 69.4694 26.3537 69.5012C26.8514 69.681 27.3637 69.8174 27.8848 69.9086C28.5239 70.0256 29.1707 70 29.8157 69.992C29.9729 69.992 30.1301 69.9888 30.2867 69.9797C30.4198 69.972 30.5533 69.958 30.685 69.9377C30.7955 69.9165 30.8937 69.8539 30.9596 69.7627C31.083 69.6069 31.2462 69.5313 31.4334 69.4917C31.4847 69.4814 31.5349 69.4664 31.5833 69.4469C31.7322 69.3836 31.7909 69.288 31.758 69.1277C31.7317 68.9907 31.6923 68.8565 31.6406 68.7269C31.4861 68.3492 31.2912 67.9894 31.0596 67.6536C30.9162 67.4485 30.7842 67.2356 30.6644 67.0158C30.5921 66.877 30.5394 66.7288 30.5079 66.5755C30.403 66.0854 30.0858 65.7633 29.5938 65.6611C29.4292 65.6261 29.2636 65.5978 29.1015 65.5561C28.8918 65.5015 28.7521 65.3667 28.671 65.1605C28.5061 64.7377 28.3429 64.3138 28.1609 63.8983C28.0114 63.5562 27.8129 63.2378 27.5718 62.9531C27.4173 62.7714 27.2535 62.5971 27.0864 62.428C26.9375 62.2803 26.8202 62.1037 26.7419 61.9089C26.4834 61.2522 26.2695 60.5808 26.1588 59.8846C26.0861 59.426 26.0735 58.9576 26.0368 58.4938C26.0172 58.2449 26.0717 58.0037 26.1605 57.7766C26.2898 57.4468 26.44 57.1244 26.5798 56.7996C26.751 56.4082 27.0449 56.1345 27.4215 55.9493C27.6645 55.8345 27.8694 55.6523 28.012 55.4242C28.1518 55.1981 28.366 55.0392 28.5641 54.8697C28.8017 54.6646 29.0442 54.4647 29.2755 54.2522C29.4921 54.0541 29.6707 53.8234 29.771 53.5427C29.8086 53.445 29.8335 53.3429 29.845 53.2388C29.8642 53.0008 29.8597 52.761 29.8831 52.5237C29.895 52.3853 29.9289 52.2497 29.9837 52.1222C30.0863 51.8874 30.1527 51.6383 30.1808 51.3836C30.2118 51.1058 30.2193 50.826 30.2032 50.547C30.1955 50.3268 30.2238 50.1052 30.2381 49.8847C30.2399 49.858 30.2601 49.8328 30.28 49.7884C30.3478 49.802 30.4146 49.8097 30.4785 49.8286C31.1924 50.0387 31.8999 50.276 32.6211 50.4587C33.4433 50.6663 34.2207 50.9838 34.9911 51.3255C35.51 51.5551 35.9807 51.8694 36.4279 52.2135C36.6522 52.3861 36.8409 52.6038 36.9244 52.8944C36.987 53.1161 37.1304 53.3061 37.3262 53.4268C37.61 53.6078 37.8207 53.5493 37.9643 53.2479C37.9866 53.2007 37.9992 53.1489 38.0265 53.1037C38.0568 53.0562 38.0895 53.0103 38.1246 52.9662C38.3046 53.0712 38.2379 53.2203 38.2473 53.3663C38.1959 53.4198 38.1425 53.4814 38.0841 53.5357C37.8486 53.7492 37.7431 54.031 37.6725 54.3286C37.6599 54.3973 37.6599 54.4677 37.6725 54.5365C37.7075 54.7896 37.7525 55.0416 37.785 55.295C37.8011 55.4591 37.8789 55.6108 38.0027 55.7193C38.3277 56.0021 38.6502 56.2874 38.9811 56.5636C39.1816 56.7313 39.3951 56.8843 39.6027 57.0439C39.7513 57.1563 39.9177 57.2429 40.095 57.3001C40.3371 57.381 40.5712 57.485 40.812 57.5711C40.8902 57.5991 40.9779 57.6012 41.0656 57.6159C41.3382 57.2977 41.5517 56.9735 41.6097 56.5636C41.6764 56.0946 41.683 55.6234 41.6862 55.1512C41.6862 54.9709 41.6991 54.7899 41.718 54.6107C41.729 54.542 41.7548 54.4766 41.7935 54.4189C42.0223 54.0468 41.9975 53.6894 41.7351 53.347C41.6572 53.2458 41.5667 53.1541 41.4793 53.0603C41.2746 52.8398 41.1009 52.6024 41.0618 52.2902C41.045 52.1575 41.03 52.0249 41.0181 51.8918C40.9832 51.4977 40.9454 51.1039 40.9168 50.7094C40.9104 50.6103 40.8731 50.5158 40.8102 50.4391C40.712 50.3163 40.6135 50.1941 40.5125 50.0733C40.3957 49.9347 40.2484 49.8252 40.082 49.7534C39.4157 49.4604 38.7361 49.2073 38.0247 49.0449C37.8042 48.9945 37.589 48.9199 37.3738 48.8502C36.9146 48.7018 36.4566 48.5512 35.9995 48.3983C35.8225 48.3393 35.658 48.2477 35.5146 48.1281C35.4342 48.0616 35.3426 48.0087 35.2563 47.9496C35.2197 47.924 35.1833 47.8978 35.1456 47.8712C35.1721 47.7735 35.2413 47.7311 35.3084 47.6853C35.5051 47.5509 35.6994 47.4129 35.8986 47.2817C35.9841 47.2218 36.0763 47.172 36.1732 47.1332C36.3912 47.0508 36.5967 46.9385 36.784 46.7996C36.8923 46.7216 37.0002 46.6421 37.111 46.5669C37.2422 46.4806 37.3867 46.4167 37.5387 46.3778C37.7292 46.3257 37.9143 46.2554 38.0915 46.1678C38.1934 46.1127 38.2804 46.0335 38.3448 45.9371C38.5523 45.6347 38.7483 45.3242 38.9423 45.013C39.0509 44.8401 39.1917 44.6897 39.357 44.5702C39.5688 44.4147 39.7781 44.2551 39.9227 44.0307C40.0025 43.9162 40.0676 43.792 40.1163 43.6611C40.2305 43.3131 40.3284 42.961 40.4308 42.6074C40.4959 42.3931 40.4845 42.1628 40.3986 41.956C40.2337 41.5583 40.0618 41.1635 39.8895 40.7686C39.8406 40.6502 39.7829 40.5356 39.7169 40.4259C39.6351 40.2851 39.5396 40.1527 39.4318 40.0307C39.24 39.828 39.0352 39.6365 38.8259 39.4517C38.7089 39.3561 38.5851 39.2691 38.4555 39.1913C37.8598 38.8027 37.2078 38.5178 36.5858 38.1761C36.2392 37.9864 35.9129 37.7599 35.5705 37.5625C35.299 37.4057 35.0198 37.2614 34.7382 37.1232C34.5823 37.0469 34.4143 36.9954 34.2528 36.9303C34.032 36.8414 33.8115 36.7518 33.5924 36.6587C33.1788 36.4875 32.7531 36.3471 32.3188 36.2386C32.2916 36.2316 32.2654 36.2186 32.2259 36.2036C32.2231 36.1532 32.2165 36.1028 32.2172 36.052C32.2221 35.7198 32.2308 35.3869 32.2332 35.0551C32.2332 34.8688 32.228 34.6823 32.2224 34.495C32.2168 34.3834 32.2535 34.2739 32.3251 34.1883C32.5718 33.8862 32.8531 33.6283 33.227 33.4963C33.5725 33.3738 33.8332 33.1648 33.9957 32.8291C34.0603 32.6957 34.1637 32.5816 34.2354 32.479C34.3772 32.4493 34.4289 32.5217 34.4761 32.597C34.6159 32.8189 34.7556 33.0398 34.8895 33.2656C34.9411 33.3567 35.0141 33.4337 35.1023 33.49C35.4242 33.7028 35.7965 33.8267 36.1816 33.8491C36.8839 33.8862 37.5852 33.9398 38.2875 33.9797C38.7994 34.0048 39.3123 33.9644 39.814 33.8596C40.451 33.7322 41.0866 33.5961 41.7232 33.4662C42.457 33.3164 43.1516 33.0566 43.8319 32.751C44.3253 32.5294 44.8274 32.331 45.3372 32.1507C45.9015 31.9512 46.4654 31.7492 47.0217 31.5293C47.4812 31.348 47.9301 31.139 48.3823 30.9413C48.6269 30.8362 48.8746 30.7312 49.116 30.6157C49.3109 30.525 49.4998 30.4221 49.6817 30.3077C50.1272 30.0185 50.3655 29.6076 50.3806 29.0685C50.3855 28.8532 50.397 28.6383 50.4117 28.4237C50.4208 28.3641 50.4354 28.3055 50.4553 28.2487C50.5951 28.1983 50.7188 28.1503 50.8449 28.1086C50.8841 28.0957 50.9261 28.0938 50.9663 28.1031C51.0065 28.1125 51.0433 28.1328 51.0727 28.1619C51.3002 28.3694 51.535 28.57 51.7478 28.7919C52.2394 29.3051 52.7143 29.8337 53.2384 30.3161C53.5504 30.6042 53.8453 30.9112 54.1469 31.2094C54.5326 31.5891 54.9182 31.969 55.3038 32.3492C55.4858 32.5294 55.6608 32.7167 55.8436 32.8959C56.005 33.0542 56.1787 33.1984 56.3076 33.3899C56.4568 33.6108 56.6843 33.6549 56.9271 33.6034C57.2227 33.5404 57.4673 33.3881 57.6259 33.1231C57.6803 33.0328 57.7159 32.9324 57.7305 32.828C57.745 32.7236 57.7384 32.6172 57.7108 32.5154C57.6963 32.4491 57.6636 32.3881 57.6164 32.3393C57.5693 32.2905 57.5096 32.2557 57.4439 32.2389C57.1769 32.1629 56.9781 31.9816 56.7685 31.8188C56.6088 31.6939 56.4474 31.5672 56.3492 31.3795C56.3317 31.3445 56.2901 31.3253 56.2594 31.2994C56.099 31.1653 55.9358 31.0351 55.7786 30.8975C55.4854 30.6409 55.1954 30.3808 54.9051 30.1218C54.8777 30.1003 54.8519 30.0769 54.8279 30.0518C54.4166 29.5649 53.9459 29.1416 53.4421 28.7566C53.2817 28.633 53.1419 28.4828 52.9959 28.3418C52.7656 28.1195 52.5382 27.8944 52.303 27.6644C52.2716 27.5773 52.3107 27.5031 52.3764 27.4376C52.6175 27.1961 52.8795 26.9881 53.2199 26.9038C53.3928 26.8611 53.5399 26.7686 53.6807 26.6626C53.8338 26.5474 53.9854 26.4277 54.1483 26.3269C54.2735 26.2541 54.4046 26.1921 54.5403 26.1414C54.9292 25.9828 55.2587 25.7636 55.4093 25.3432C55.4624 25.1955 55.5267 25.0516 55.5938 24.9095C55.6427 24.8045 55.7049 24.7075 55.7685 24.5917C55.8509 24.6026 55.9326 24.6187 56.0131 24.6396C56.2926 24.7327 56.5721 24.8318 56.8516 24.9291C57.0546 24.9991 57.2563 25.0747 57.461 25.1409C57.6878 25.2141 57.918 25.2767 58.1452 25.3485C58.2999 25.3975 58.4526 25.4535 58.606 25.5074C59.012 25.6474 59.4188 25.7875 59.8241 25.932C60.5163 26.1725 61.2077 26.4133 61.8961 26.6626C62.2455 26.7889 62.591 26.9276 62.9359 27.0669C63.0419 27.114 63.1447 27.1679 63.2437 27.2283C63.4649 27.3525 63.6281 27.32 63.7679 27.1099C63.8163 27.0374 63.8545 26.9584 63.8814 26.8754C63.9684 26.608 64.0212 26.3328 63.9918 26.0503C63.9827 25.9551 63.9485 25.862 63.922 25.7594C63.8266 25.7391 63.7493 25.7171 63.6704 25.7069C63.51 25.6863 63.3486 25.6751 63.1882 25.6548C63.0215 25.6338 62.8598 25.5839 62.7102 25.5074C62.6483 25.4748 62.582 25.4513 62.5135 25.4374C62.0208 25.3467 61.5627 25.1388 61.0809 25.0145C60.9128 24.9715 60.7528 24.8983 60.5868 24.8469C60.1382 24.7068 59.6871 24.5777 59.2395 24.4359C58.7807 24.291 58.3261 24.1335 57.8681 23.9871C57.5753 23.8937 57.2783 23.8121 56.9851 23.7207C56.7915 23.6598 56.5998 23.5931 56.41 23.5205C56.208 23.4428 56.1745 23.3689 56.2475 23.1733C56.3698 22.8463 56.4921 22.5194 56.6762 22.2194C56.7555 22.0837 56.8604 21.9648 56.9851 21.8693C57.0894 21.7855 57.1832 21.6895 57.2646 21.5833C57.3092 21.5286 57.3405 21.4643 57.3562 21.3954C57.3718 21.3266 57.3713 21.255 57.3548 21.1864C57.2594 20.984 57.0222 20.9679 56.8576 20.8237C56.8968 20.7393 56.9412 20.6575 56.9907 20.5787C57.1602 20.3417 57.0256 20.0431 56.8796 19.916C56.7514 19.804 56.6172 19.804 56.491 19.9279C56.2835 20.132 56.0892 20.3501 55.8768 20.5486C55.6221 20.787 55.3548 21.0113 55.0917 21.2406C55.0698 21.2538 55.0463 21.2641 55.0218 21.2711C54.9945 21.2293 54.9788 21.181 54.9764 21.1312C54.974 21.0813 54.985 21.0317 55.0081 20.9875C55.1507 20.7355 55.2877 20.4754 55.527 20.2962C55.6716 20.188 55.7859 20.0443 55.859 19.8789C55.9987 19.5639 55.7769 19.2527 55.4243 19.2772C54.9673 19.608 54.5218 19.9615 54.1483 20.3942C53.997 20.404 53.8582 20.4159 53.7195 20.4215C53.4739 20.4268 53.2338 20.4959 53.0228 20.6221C52.7856 20.7712 52.6779 21.0247 52.6661 21.3085C52.6549 21.5823 52.6426 21.855 52.5396 22.1137C52.5183 22.1669 52.498 22.2187 52.4714 22.2887C52.4126 22.2825 52.3542 22.2723 52.2967 22.2582C51.9103 22.1329 51.5249 22.0041 51.1381 21.8784C50.8586 21.7871 50.579 21.6733 50.2918 21.6166C50.0277 21.5648 49.7873 21.4489 49.527 21.3936C49.0502 21.2945 48.5826 21.1551 48.1293 20.977C48.0537 20.9408 47.9804 20.8999 47.9099 20.8545C47.4829 20.8752 47.0933 20.6711 46.6908 20.5066C46.4549 20.41 46.211 20.3315 45.9724 20.2423C45.8263 20.187 45.6831 20.1247 45.5398 20.0624C45.4549 20.0256 45.3728 19.9829 45.2952 19.9461C45.1387 19.9909 45.0066 19.9682 44.8627 19.915C44.5856 19.8124 44.2977 19.74 44.0136 19.6577C43.9042 19.6258 43.783 19.6181 43.6991 19.4879C43.7248 19.423 43.7559 19.3603 43.7921 19.3006C43.8889 19.1645 43.9294 19.0206 43.8924 18.855C43.8602 18.7126 43.9032 18.5984 44.0014 18.4889C44.1436 18.33 44.1667 18.2368 44.1537 18.03C44.0161 17.8469 43.827 17.7006 43.652 17.5399C43.4906 17.3975 43.3368 17.2468 43.1911 17.0883C43.1196 17.0042 43.0707 16.9033 43.0489 16.795C43.0084 16.5909 43.0014 16.3802 42.9696 16.174C42.8997 15.7217 42.9608 15.2663 42.9315 14.8133C42.9325 14.784 42.9354 14.7548 42.9402 14.7258C43.045 14.6625 43.159 14.5942 43.268 14.5284C43.3574 14.2883 43.1149 14.1752 43.0702 13.9722C43.1114 13.9141 43.1572 13.8479 43.204 13.7828C43.349 13.5801 43.3438 13.4576 43.175 13.2689C43.0943 13.1782 43.0125 13.0886 42.9283 12.9952C42.9455 12.8149 42.9633 12.6451 42.9783 12.4645L42.7669 12.4431C42.6705 12.2681 42.5678 12.0829 42.4608 11.8904C42.3375 11.8876 42.2285 11.8796 42.1198 11.8841C42.0796 11.8884 42.0391 11.8818 42.0022 11.8652C41.9654 11.8486 41.9336 11.8225 41.9102 11.7896C41.8273 11.6748 41.7631 11.5495 41.7547 11.4066C41.7445 11.1673 41.6881 10.9321 41.5887 10.7142C41.4839 10.4948 41.3462 10.2914 41.219 10.0841C41.2031 10.0516 41.176 10.0259 41.1427 10.0118C41.1093 9.99772 41.0721 9.99618 41.0377 10.0075C41.0034 10.0168 40.9729 10.0367 40.9505 10.0643C40.9281 10.092 40.915 10.126 40.9129 10.1615C40.9042 10.2714 40.9094 10.3824 40.9091 10.493V10.6859C40.8217 10.6911 40.7795 10.6393 40.7344 10.6008C40.5733 10.4671 40.4164 10.3281 40.2536 10.1969C40.1821 10.1374 40.1032 10.0875 40.0188 10.0484C39.9653 10.0253 39.8969 10.0369 39.8486 10.0337C39.7215 10.1587 39.7739 10.2735 39.8249 10.3859C39.9091 10.5714 39.9975 10.7548 40.0817 10.9404C40.0974 10.984 40.11 11.0287 40.1194 11.0741C40.0777 11.0784 40.0357 11.0784 39.994 11.0741C39.5827 10.9743 39.1725 10.8704 38.7606 10.7727C38.6695 10.7528 38.5767 10.7427 38.4835 10.7426C38.1872 10.737 37.8895 10.7244 37.5942 10.7398C37.423 10.7489 37.255 10.8119 37.0838 10.8403C36.8556 10.8784 36.6267 10.9187 36.3961 10.9348C36.1788 10.9498 35.9911 11.0349 35.8084 11.1364C35.6923 11.2028 35.5809 11.2772 35.4751 11.359C35.4274 11.3916 35.3924 11.4397 35.3762 11.4952C35.35 11.6527 35.242 11.735 35.1218 11.8102C35.0016 11.8855 34.8716 11.9587 34.7483 12.0353C34.6941 12.0693 34.6422 12.1067 34.5928 12.1473C34.4586 12.2569 34.3259 12.3679 34.3727 12.5261C34.2504 12.7011 34.154 12.8443 34.0526 12.9833C34.0226 13.0246 33.9754 13.0533 33.9401 13.0904C33.8454 13.1919 33.7375 13.2854 33.663 13.4005C33.546 13.5812 33.5806 13.7562 33.7329 13.9046C33.7864 13.9561 33.8416 14.0058 33.8926 14.053C33.8618 14.199 33.7672 14.2813 33.6711 14.3527C33.5371 14.4564 33.4299 14.5908 33.3587 14.7447C33.2189 15.0248 33.0801 15.3066 32.9422 15.5901C32.9244 15.633 32.9092 15.677 32.8968 15.7217C32.923 15.7602 32.9429 15.7956 32.9667 15.8267C33.0921 15.987 33.1952 16.1637 33.2731 16.3518C33.3587 16.5433 33.3279 16.6966 33.1826 16.8419C33.0551 16.9697 32.9404 17.1097 32.8168 17.2409C32.7417 17.3151 32.6981 17.4154 32.6952 17.521C32.6894 17.5782 32.676 17.6343 32.6553 17.688C32.6448 17.7209 32.6204 17.7496 32.6096 17.7821C32.5509 17.94 32.5047 18.1087 32.6389 18.2421C32.7731 18.3755 32.9453 18.4521 33.1477 18.3881C33.1735 18.381 33.1999 18.376 33.2266 18.373C33.444 18.5008 33.6438 18.618 33.843 18.7353C33.9261 18.7843 33.9576 18.8568 33.9576 18.9541C33.9576 19.1967 33.7762 19.5492 33.4604 19.6412C32.9586 19.7865 32.4502 19.8957 31.9401 20.0008C31.8213 20.0249 31.6979 20.0246 31.5767 20.0358C31.1731 20.0736 30.7696 20.1096 30.3663 20.1495C30.17 20.1691 29.9722 20.1845 29.7797 20.2223C29.6197 20.2509 29.4644 20.3018 29.3185 20.3736C29.0257 20.5269 28.7402 20.6967 28.4603 20.8731C28.1899 21.0432 27.9299 21.2305 27.6658 21.4108C27.6462 21.4235 27.6277 21.4379 27.6106 21.4538C27.1214 21.918 26.5882 22.331 26.1539 22.854C25.7304 23.3654 25.2926 23.8639 24.9009 24.4009C24.3928 25.0979 23.9393 25.8312 23.5085 26.5772C23.1633 27.1718 22.8759 27.7982 22.6503 28.4478C22.5392 28.7692 22.499 29.1045 22.4665 29.4413C22.4438 29.6783 22.4187 29.9153 22.3858 30.1512C22.3484 30.4211 22.3027 30.6899 22.2576 30.9588C22.2464 31.026 22.2244 31.0914 22.2094 31.1499C22.0542 31.2013 21.9375 31.1408 21.8376 31.062C21.5738 30.8555 21.2702 30.72 20.9763 30.5685C20.8877 30.5265 20.7913 30.5038 20.6933 30.5016C20.4784 30.4921 20.2625 30.4907 20.0476 30.5016C19.6699 30.5187 19.3358 30.6434 19.0587 30.9147C18.8746 31.0949 18.695 31.2749 18.5877 31.5146C18.5179 31.6694 18.3669 31.6802 18.232 31.6897C18.0065 31.7044 17.7836 31.7465 17.5682 31.815C17.4818 31.8416 17.3851 31.8349 17.2928 31.8391C17.0552 31.8496 16.8169 31.8514 16.58 31.8713C16.5122 31.8773 16.4438 31.9267 16.3847 31.9694C16.3316 32.0147 16.2818 32.0637 16.2355 32.116C16.0259 32.3152 16.0203 32.575 16 32.8462C16.2177 32.8889 16.4193 32.9198 16.6206 32.8967C16.95 32.8588 17.2079 32.988 17.449 33.1875C17.5832 33.2989 17.7198 33.4084 17.862 33.5089C17.9981 33.6004 18.1573 33.6513 18.3211 33.6556C18.7733 33.6829 19.1999 33.6041 19.5989 33.3808C19.7268 33.3108 19.8246 33.2218 19.8764 33.0822C19.9064 33.0001 19.9436 32.9208 19.9875 32.8452C20.0219 32.7785 20.0677 32.7184 20.1227 32.6674C20.2923 32.5312 20.4879 32.4312 20.6975 32.3733C21.1734 32.4843 21.7251 32.8634 21.8785 33.1844C21.8579 33.2288 21.8337 33.2714 21.8061 33.3118C21.6024 33.5694 21.4567 33.8617 21.3072 34.1519C21.1996 34.3581 21.0797 34.5583 20.969 34.7628C20.9246 34.8443 20.891 34.9315 20.8495 35.0145C20.7632 35.1856 20.6748 35.3554 20.5871 35.5273C20.4609 35.779 20.391 36.0485 20.339 36.324C20.3098 36.4955 20.2706 36.6651 20.2216 36.8319C20.1227 37.147 20.0818 37.4673 20.0532 37.7932C20.0182 38.1544 20.0378 38.5146 20.0315 38.8752C20.0168 39.702 20.2873 40.4259 20.739 41.1026C21.0426 41.5678 21.4581 41.949 21.9473 42.2112C22.1311 42.3095 22.2768 42.4492 22.354 42.6505C22.4085 42.7866 22.4153 42.9371 22.3732 43.0775C22.2845 43.3831 22.1238 43.6537 21.9655 43.925C21.8416 44.1299 21.7725 44.3633 21.7649 44.6027C21.7579 44.8173 21.73 45.0312 21.7062 45.2451C21.6905 45.3935 21.6884 45.5349 21.7999 45.656C21.8551 45.7162 21.8509 45.796 21.8313 45.8724C21.8212 45.9119 21.8063 45.9501 21.7869 45.9861C21.6374 46.2539 21.629 46.5417 21.6615 46.8361C21.6741 46.9505 21.7104 47.0541 21.8013 47.1262C22.0556 47.3247 22.2698 47.5526 22.4138 47.8491C22.4753 47.9758 22.5913 48.0763 22.6853 48.1918C22.6828 48.2142 22.6772 48.2361 22.6685 48.2569C22.4627 48.5975 22.5015 48.9602 22.5738 49.3249C22.6245 49.5801 22.7859 49.7632 22.9844 49.9134C23.0886 49.9883 23.1693 50.0916 23.2171 50.2109C23.2256 50.2325 23.2358 50.2535 23.2475 50.2736C23.382 50.5088 23.4781 50.75 23.4487 51.0325C23.4395 51.1322 23.4514 51.2328 23.4837 51.3276C23.5159 51.4224 23.5677 51.5093 23.6357 51.5827C23.5881 51.8278 23.5434 52.0553 23.5004 52.2829C23.4859 52.3511 23.4753 52.4202 23.4686 52.4897C23.4337 52.9392 23.215 53.3103 22.9571 53.6565C22.7209 53.9736 22.4477 54.2624 22.2041 54.5736C22.0144 54.8162 21.8418 55.0724 21.6671 55.3262C21.4368 55.6608 21.44 56.0288 21.5444 56.3995C21.5977 56.5781 21.6691 56.7507 21.7576 56.9147C22.0413 57.4559 22.3442 57.9876 22.6206 58.5327C22.7677 58.8218 22.8788 59.1299 23.0004 59.432C23.0941 59.6637 23.186 59.8968 23.2653 60.1321C23.3558 60.402 23.4239 60.6795 23.5158 60.9491C23.6598 61.3691 23.6888 61.8141 23.7814 62.2443C23.8376 62.5054 23.9075 62.7641 23.9847 63.02C24.0406 63.2052 24.093 63.3868 24.0766 63.5839C24.07 63.6945 24.07 63.8055 24.0766 63.9161C24.0885 64.1787 24.0461 64.4408 23.9522 64.6862C23.7943 65.0954 23.8764 65.4882 24.0067 65.8803C24.0522 66.0171 24.1521 66.1183 24.2646 66.2037C24.4819 66.3679 24.7307 66.4634 24.9973 66.5446ZM37.2965 28.6621C37.3273 28.5273 37.3748 28.3715 37.3968 28.2126C37.4262 27.9984 37.5321 27.8132 37.6358 27.6392C37.7825 27.4016 37.9556 27.1814 38.1519 26.9829C38.385 26.741 38.6226 26.4981 38.9248 26.3349C39.0091 26.2847 39.0907 26.2301 39.1694 26.1715C39.3986 26.2394 39.6044 26.2989 39.8092 26.3622C39.875 26.3836 39.9395 26.4088 40.0024 26.4378C40.2819 26.5635 40.5614 26.6976 40.8441 26.8152C41.0684 26.9083 41.2983 26.9836 41.5293 27.0651C41.9056 27.1989 42.284 27.328 42.6589 27.4663C42.7948 27.5168 42.9263 27.5784 43.052 27.6504C43.2935 27.7883 43.5388 27.9235 43.7638 28.0862C43.9019 28.1917 44.055 28.2757 44.218 28.3355C44.4479 28.4139 44.6831 28.4755 44.9126 28.5567C45.2467 28.6729 45.579 28.7933 45.9287 28.8553C45.9986 28.8676 46.0685 28.8879 46.1471 28.9071C46.133 28.9432 46.1093 28.9747 46.0784 28.9981C46.0476 29.0216 46.0109 29.036 45.9724 29.0398C45.7907 29.0748 45.6094 29.115 45.4266 29.1416C45.1056 29.1886 44.7912 29.2735 44.4902 29.3947C44.2806 29.4791 44.0667 29.5491 43.8543 29.623C43.4577 29.7609 43.0468 29.847 42.6271 29.8414C42.1104 29.8347 41.5936 29.8064 41.0779 29.7714C40.842 29.7553 40.5992 29.7283 40.379 29.6534C40.1494 29.5747 39.9137 29.5151 39.6743 29.4752C39.515 29.449 39.3626 29.379 39.2033 29.3583C38.9279 29.3233 38.6498 29.3034 38.3724 29.2883C37.9237 29.268 37.5425 29.1301 37.2976 28.6621H37.2965ZM47.5825 24.8206C47.3746 24.8556 47.1873 24.8675 47.006 24.7923C46.7198 24.6718 46.3992 24.6621 46.1062 24.765C46.0518 24.7844 45.9953 24.7971 45.9378 24.8028C45.6544 24.822 45.3711 24.843 45.087 24.85C44.9831 24.8486 44.8802 24.8301 44.7823 24.7951C44.6398 24.7468 44.4998 24.6911 44.363 24.6284C44.2205 24.5651 44.0681 24.5119 43.9437 24.4212C43.7435 24.2745 43.514 24.194 43.2935 24.096C43.073 23.998 42.8424 23.9476 42.6223 23.8597C42.2809 23.7242 41.9818 23.5338 41.8151 23.1834C41.7492 23.0472 41.6751 22.9151 41.5932 22.7879C41.4221 22.5231 41.1981 22.2966 40.9353 22.1228C40.8752 22.0764 40.8178 22.0266 40.7634 21.9736C40.8191 21.9467 40.8768 21.9242 40.936 21.9064C41.2033 21.856 41.4727 21.8161 41.7396 21.7598C41.998 21.7049 42.2553 21.6414 42.5115 21.5693C42.6136 21.5434 42.7082 21.494 42.7879 21.4251C42.8677 21.3562 42.9303 21.2697 42.971 21.1724C43.0304 21.0324 43.0803 20.8923 43.1394 20.7401C43.327 20.5916 43.3948 20.5902 43.5751 20.7642C43.7379 20.9217 43.8945 21.0859 44.0503 21.2504C44.1701 21.3765 44.2676 21.5305 44.4049 21.6313C44.7023 21.8487 44.9664 22.1018 45.2306 22.3548C45.4403 22.5558 45.6401 22.7669 45.8424 22.9755C46.0119 23.1505 46.1744 23.3329 46.3473 23.5041C46.6534 23.8065 46.9696 24.0992 47.2719 24.4047C47.3854 24.5182 47.5171 24.6228 47.5825 24.8206ZM44.6918 20.7541C44.7655 20.7044 44.8316 20.7348 44.8896 20.7684C45.0839 20.8811 45.2977 20.9347 45.5129 20.9851C45.8012 21.0527 46.0891 21.1153 46.3651 21.2301C46.5944 21.3264 46.8386 21.3866 47.0758 21.4636C47.1859 21.4986 47.2967 21.5336 47.4053 21.5746C47.7768 21.709 48.1468 21.8466 48.5186 21.9796C48.6496 22.0265 48.7852 22.0601 48.9165 22.1067C49.4092 22.2815 49.9014 22.4579 50.3931 22.6359C50.5132 22.6795 50.6308 22.7298 50.7453 22.7865C50.7967 22.8124 50.8358 22.8628 50.9085 22.9265C50.8247 22.9615 50.7768 22.9965 50.7247 23.0052C50.4497 23.0497 50.1748 23.097 49.8977 23.125C49.7551 23.1393 49.6265 23.1663 49.5067 23.2496C49.3668 23.3531 49.2183 23.4446 49.0629 23.523C48.8825 23.603 48.7131 23.7058 48.5587 23.8289C48.4714 23.9007 48.3952 23.9976 48.2527 24.0137C48.2053 23.9777 48.16 23.9388 48.1171 23.8975C47.9792 23.7476 47.8236 23.615 47.6538 23.5027C47.5668 23.4474 47.4955 23.3668 47.4186 23.2958C47.3634 23.2447 47.3113 23.1908 47.2568 23.1372C46.8494 22.7473 46.3868 22.42 45.9899 22.017C45.6593 21.6817 45.3173 21.3579 44.9801 21.0296C44.8875 20.9417 44.7963 20.8542 44.6918 20.7541ZM52.2279 23.2744C52.2234 23.3294 52.223 23.3864 52.2132 23.4418C52.1783 23.6301 52.1213 23.8167 52.1105 24.006C52.0895 24.3603 51.9487 24.6305 51.6412 24.8112C51.6213 24.8227 51.6063 24.8423 51.5867 24.8546C51.4774 24.9246 51.347 24.9043 51.2331 24.7916C51.2957 24.7639 51.354 24.7439 51.4078 24.7138C51.5081 24.6575 51.6175 24.6088 51.7006 24.5325C51.8421 24.4019 51.8219 24.2472 51.6657 24.1359C51.629 24.1093 51.5902 24.0848 51.5609 24.0659C51.5259 23.9805 51.5672 23.9311 51.6059 23.8793C51.6595 23.8181 51.7064 23.7514 51.7457 23.6801C51.8264 23.5051 51.7716 23.3773 51.5948 23.3024C51.5465 23.2821 51.4952 23.2692 51.4484 23.2468C51.3697 23.209 51.2925 23.1673 51.2674 23.0742C51.2967 22.9692 51.3704 22.9751 51.448 22.9993C51.6751 23.0693 51.9018 23.1407 52.128 23.2135C52.1634 23.2301 52.1969 23.2505 52.2279 23.2744ZM50.8788 24.7797L50.4228 25.1882H49.8142C49.6697 25.1286 49.5389 25.0401 49.4298 24.9281C49.5888 24.7019 49.7684 24.543 50.0546 24.5717C50.1474 24.5769 50.2399 24.5871 50.3316 24.6022C50.5053 24.6389 50.6877 24.6582 50.8788 24.7807V24.7797Z" fill="black"/>
</svg>
