<svg width="477" height="142" viewBox="0 0 477 142" fill="none" xmlns="http://www.w3.org/2000/svg">
<path d="M109.724 83.3087C110.924 84.7087 113.324 87.7087 111.524 89.5087C109.824 91.2087 106.524 89.2087 105.324 87.8087C98.3244 79.7087 88.6244 76.6087 78.6244 76.8087C69.8244 89.3087 60.1244 101.109 49.5244 112.209C43.2244 118.809 36.6244 125.109 29.7244 131.109C23.7244 136.409 17.3244 141.709 8.82437 141.409C6.12437 141.309 3.72437 139.009 2.62437 136.809C-4.27564 123.809 3.62437 111.909 12.5244 102.509C21.8244 92.6087 31.7244 83.1087 43.5244 76.3087C52.0244 71.4087 61.7244 68.5087 71.3244 68.0087C71.5244 67.8087 71.6244 67.6087 71.7244 67.4087C80.2244 55.2087 89.5244 41.9087 94.1244 27.6087C95.5244 23.5087 99.3244 9.60868 91.9244 9.60868C85.1244 9.60868 77.4244 12.7087 71.3244 15.3087C58.1244 20.8087 46.5244 29.2087 37.0244 39.8087C34.1244 42.9087 26.1244 35.1087 29.1244 31.8087C41.7244 17.9087 58.2244 7.50867 76.4244 2.50867C83.7244 0.508676 91.4244 -0.991323 97.8244 4.20868C103.324 8.80868 105.624 16.0087 105.124 22.9087C104.024 39.6087 93.2244 55.2087 84.1244 68.8087C93.8244 70.6087 102.824 75.3087 109.724 83.3087ZM44.0244 101.709C50.6244 94.6087 56.9244 87.2087 62.9244 79.5087C58.3244 80.9087 53.9244 82.9087 50.0244 85.1087C40.2244 90.8087 31.7244 98.7087 23.8244 106.809C17.8244 113.009 8.12437 122.209 8.92437 131.709C15.4244 129.909 20.9244 124.109 25.8244 119.709C32.1244 113.909 38.2244 107.909 44.0244 101.709Z" fill="#CCCCCC"/>
<path d="M181.292 76.5087C184.592 73.5087 190.492 79.3087 187.392 82.2087C179.592 89.2087 171.492 96.3087 162.392 101.709C158.292 104.209 153.292 106.909 148.192 106.309C143.092 105.709 138.792 101.509 137.392 96.7087C136.392 93.5087 136.792 90.6087 137.692 87.7087C128.592 93.7087 120.992 102.609 110.692 106.709C107.092 108.109 102.292 102.309 102.992 99.0087C105.292 88.8087 110.792 78.3087 119.392 72.0087C126.092 66.9087 134.792 68.2087 139.692 74.5087C140.592 74.2087 141.492 73.9087 142.492 73.6087C143.692 73.3087 145.092 73.8087 146.292 74.7087C148.292 76.1087 150.192 78.2087 150.292 80.0087C150.392 80.6087 150.392 81.1087 150.192 81.6087C149.792 84.3087 148.892 86.8087 147.992 89.4087C147.092 92.0087 146.592 94.5087 146.092 97.1087C146.292 97.1087 146.392 97.1087 146.492 97.1087C156.792 95.9087 174.892 82.3087 181.292 76.5087ZM119.592 87.9087C123.992 84.3087 128.292 80.6087 133.092 77.7087C132.992 77.7087 132.992 77.7087 132.992 77.6087C132.292 77.8087 131.592 77.9087 130.992 78.0087C129.092 78.4087 127.392 79.7087 125.992 81.0087C123.692 82.9087 121.592 85.2087 119.792 87.6087C119.692 87.7087 119.692 87.8087 119.592 87.9087Z" fill="#CCCCCC"/>
<path d="M250.727 76.2087C254.427 74.5087 258.427 80.5087 254.127 82.5087C245.227 86.7087 236.927 91.8087 228.627 97.0087C223.427 100.209 217.727 104.709 211.727 106.109C205.727 107.509 200.227 101.909 201.127 96.0087C201.627 92.6087 203.027 89.2087 204.727 85.9087C194.927 91.3087 186.327 98.4087 179.027 107.109C176.127 110.609 169.827 103.009 170.627 99.9087C172.827 91.2087 177.027 82.8087 181.427 75.0087C183.827 70.7087 192.227 78.0087 190.327 81.4087C190.127 81.7087 190.027 81.9087 189.927 82.1087C197.627 76.8087 206.027 72.7087 215.027 69.9087C218.827 68.7087 224.427 74.7087 222.227 78.3087C219.227 83.1087 216.727 88.0087 214.227 93.0087C226.127 87.1087 239.027 81.7087 250.727 76.2087Z" fill="#CCCCCC"/>
<path d="M295.87 76.9087C299.47 74.1087 305.07 80.2087 301.77 82.3087C288.27 91.1087 274.07 101.309 258.67 106.709C253.07 108.809 247.27 109.109 243.27 103.809C237.07 95.5087 245.07 83.4087 250.67 77.3087C255.77 71.7087 264.77 65.4087 271.47 72.5087C281.17 82.6087 258.37 91.4087 252.27 94.3087C252.27 94.4087 252.27 94.4087 252.17 94.4087C251.67 95.6087 251.27 96.9087 250.87 98.2087C261.07 96.9087 285.77 84.7087 295.87 76.9087Z" fill="#CCCCCC"/>
<path d="M445.975 9.00867C459.675 22.0087 454.175 41.3087 445.575 55.5087C436.075 71.1087 422.175 83.5087 407.475 94.1087C392.175 105.209 375.475 114.309 357.875 121.409C357.675 122.609 357.475 123.809 357.375 125.009C356.575 130.509 347.775 124.209 348.275 120.309C348.475 119.009 348.675 117.609 348.875 116.209C348.575 115.209 348.575 114.209 349.275 113.609C354.675 82.8087 368.975 54.2087 390.775 31.7087C393.775 28.5087 401.675 36.5087 398.675 39.6087C380.075 58.9087 366.875 82.8087 360.475 108.709C374.675 102.309 388.375 94.4087 400.975 85.1087C413.575 75.9087 425.575 65.4087 434.475 52.4087C440.875 43.2087 453.875 19.1087 438.775 11.6087C432.575 8.60868 425.075 8.80868 418.375 9.30868C409.975 10.0087 401.575 11.6087 393.375 13.8087C377.275 18.2087 361.975 25.3087 348.275 34.9087C344.575 37.5087 337.075 29.3087 340.375 27.0087C358.175 14.6087 378.375 5.90868 399.775 2.10867C415.075 -0.591322 433.675 -2.69132 445.975 9.00867Z" fill="#CCCCCC"/>
<path d="M476.58 91.8087C476.68 92.3087 476.58 92.7087 476.28 93.1087C476.08 93.4087 475.78 93.7087 475.48 93.8087C474.38 94.5087 473.58 95.4087 472.78 96.4087C472.28 97.2087 470.88 97.0087 470.08 96.8087C468.78 96.5087 467.58 95.5087 466.68 94.6087C465.68 93.8087 464.78 92.4087 464.48 91.2087C464.18 90.1087 464.28 89.3087 464.88 88.4087C465.98 87.0087 467.28 86.0087 468.78 85.1087C469.48 84.9087 470.18 84.9087 470.78 85.1087C471.18 85.3087 471.58 85.4087 471.98 85.6087C473.28 86.2087 474.38 87.3087 475.28 88.4087C475.88 89.3087 476.58 90.6087 476.58 91.8087Z" fill="#CCCCCC"/>
</svg>
