<svg width="100" height="100" viewBox="0 0 100 100" fill="none" xmlns="http://www.w3.org/2000/svg">
<circle cx="50" cy="50" r="50" fill="#FF4400"/>
<path d="M29.9964 85.3929C30.077 85.3294 30.1581 85.2715 30.2331 85.2062C30.3915 85.0694 30.5462 84.9261 30.7041 84.7898C30.7893 84.7152 30.8848 84.6694 31.0022 84.7054C31.1569 84.8627 31.1937 85.0354 31.0996 85.23C31.0469 85.3426 30.9827 85.4494 30.9081 85.5488C30.6398 85.8941 30.6258 86.2773 30.7251 86.6787C30.7549 86.7991 30.8005 86.9154 30.8387 87.0334C30.8746 87.1441 30.9268 87.2523 30.9412 87.3658C30.9734 87.6122 31.0521 87.8222 31.2347 88.0057C31.3162 88.0883 31.3316 88.2446 31.36 88.3711C31.4187 88.6357 31.4663 88.9032 31.5222 89.1902C31.6134 89.2443 31.7078 89.2926 31.805 89.3349C32.4685 89.5747 33.1516 89.7565 33.8464 89.8782C34.6985 90.0341 35.5609 90 36.4209 89.9893C36.6305 89.9893 36.8402 89.9851 37.0489 89.9729C37.2264 89.9627 37.4044 89.944 37.58 89.9169C37.7273 89.8887 37.8582 89.8052 37.9462 89.6836C38.1106 89.4759 38.3282 89.3751 38.5779 89.3223C38.6462 89.3086 38.7131 89.2886 38.7778 89.2626C38.9762 89.1781 39.0545 89.0507 39.0107 88.8369C38.9755 88.6542 38.9231 88.4753 38.8542 88.3025C38.6481 87.799 38.3883 87.3192 38.0794 86.8715C37.8882 86.598 37.7123 86.3141 37.5525 86.0211C37.4561 85.836 37.3858 85.6384 37.3438 85.4339C37.204 84.7805 36.781 84.3511 36.1251 84.2148C35.9056 84.1682 35.6848 84.1303 35.4686 84.0748C35.1891 84.002 35.0028 83.8223 34.8947 83.5474C34.6748 82.9836 34.4572 82.4184 34.2145 81.8644C34.0152 81.4083 33.7506 80.9838 33.429 80.6042C33.2231 80.3619 33.0046 80.1295 32.7819 79.9041C32.5833 79.7071 32.427 79.4716 32.3226 79.2119C31.9778 78.3363 31.6927 77.4411 31.545 76.5128C31.4481 75.9013 31.4313 75.2768 31.3824 74.6584C31.3563 74.3266 31.429 74.005 31.5473 73.7021C31.7197 73.2624 31.92 72.8326 32.1064 72.3994C32.3347 71.8776 32.7265 71.5126 33.2287 71.2657C33.5526 71.1127 33.8259 70.8697 34.016 70.5656C34.2024 70.2641 34.488 70.0522 34.7521 69.8263C35.0689 69.5528 35.3922 69.2863 35.7006 69.003C35.9895 68.7388 36.2276 68.4312 36.3613 68.0569C36.4115 67.9267 36.4447 67.7905 36.46 67.6518C36.4857 67.3344 36.4796 67.0147 36.5108 66.6983C36.5266 66.5138 36.5719 66.333 36.645 66.1629C36.7817 65.8498 36.8703 65.5178 36.9077 65.1781C36.9491 64.8078 36.9591 64.4346 36.9376 64.0626C36.9273 63.769 36.965 63.4736 36.9841 63.1795C36.9865 63.1441 37.0135 63.1105 37.0401 63.0512C37.1304 63.0694 37.2194 63.0797 37.3047 63.1049C38.2565 63.3849 39.1999 63.7013 40.1614 63.945C41.2577 64.2218 42.2943 64.6451 43.3215 65.1006C44.0134 65.4068 44.6409 65.8259 45.2372 66.2847C45.5363 66.5148 45.7879 66.8051 45.8992 67.1925C45.9827 67.4881 46.1739 67.7414 46.435 67.9024C46.8133 68.1437 47.0942 68.0658 47.2857 67.6639C47.3155 67.6009 47.3323 67.5318 47.3686 67.4716C47.409 67.4082 47.4527 67.347 47.4995 67.2882C47.7395 67.4282 47.6505 67.6271 47.6631 67.8217C47.5946 67.8931 47.5233 67.9752 47.4455 68.0476C47.1315 68.3323 46.9908 68.708 46.8967 69.1047C46.8799 69.1964 46.8799 69.2903 46.8967 69.382C46.9433 69.7194 47.0034 70.0555 47.0467 70.3934C47.0681 70.6121 47.1719 70.8144 47.3369 70.9591C47.7702 71.3362 48.2002 71.7166 48.6414 72.0848C48.9088 72.3084 49.1935 72.5124 49.4702 72.7252C49.6684 72.8751 49.8903 72.9906 50.1266 73.0669C50.4495 73.1747 50.7616 73.3133 51.0826 73.4281C51.187 73.4654 51.3039 73.4683 51.4208 73.4879C51.7842 73.0636 52.0689 72.6314 52.1462 72.0848C52.2352 71.4594 52.2441 70.8312 52.2482 70.2016C52.2482 69.9612 52.2655 69.7199 52.2906 69.4809C52.3054 69.3894 52.3397 69.3021 52.3913 69.2252C52.6964 68.729 52.6633 68.2525 52.3135 67.796C52.2096 67.6611 52.0889 67.5388 51.9724 67.4138C51.6994 67.1197 51.4679 66.8033 51.4157 66.3869C51.3934 66.21 51.3733 66.0332 51.3575 65.8558C51.3109 65.3303 51.2606 64.8052 51.2224 64.2792C51.2139 64.1471 51.1642 64.0211 51.0803 63.9188C50.9494 63.755 50.818 63.5921 50.6834 63.4311C50.5276 63.2463 50.3311 63.1002 50.1094 63.0045C49.221 62.6139 48.3148 62.2764 47.3663 62.0598C47.0723 61.9926 46.7853 61.8932 46.4984 61.8003C45.8862 61.6024 45.2754 61.4016 44.666 61.1978C44.43 61.1191 44.2106 60.9969 44.0194 60.8375C43.9123 60.7488 43.7902 60.6783 43.6751 60.5994C43.6262 60.5653 43.5778 60.5303 43.5274 60.4949C43.5628 60.3647 43.6551 60.3082 43.7445 60.247C44.0068 60.0678 44.2659 59.8839 44.5314 59.7089C44.6455 59.6291 44.7684 59.5627 44.8976 59.511C45.1882 59.4011 45.4623 59.2514 45.7119 59.0662C45.8564 58.9621 46.0003 58.8562 46.148 58.7558C46.3229 58.6408 46.5156 58.5557 46.7183 58.5038C46.9723 58.4343 47.2191 58.3405 47.4553 58.2237C47.5912 58.1503 47.7071 58.0447 47.793 57.9162C48.0698 57.5129 48.3311 57.0989 48.5897 56.684C48.7345 56.4534 48.9222 56.253 49.1427 56.0936C49.425 55.8863 49.7041 55.6735 49.8969 55.3743C50.0034 55.2216 50.0901 55.056 50.155 54.8814C50.3074 54.4175 50.4378 53.948 50.5743 53.4766C50.6612 53.1908 50.646 52.8837 50.5315 52.608C50.3116 52.0778 50.0824 51.5513 49.8527 51.0248C49.7875 50.8669 49.7106 50.7142 49.6225 50.5679C49.5135 50.3801 49.3862 50.2036 49.2424 50.0409C48.9866 49.7707 48.7136 49.5154 48.4346 49.269C48.2785 49.1415 48.1134 49.0254 47.9407 48.9217C47.1464 48.4036 46.2771 48.0237 45.4478 47.5682C44.9856 47.3152 44.5505 47.0132 44.0939 46.75C43.732 46.5409 43.3597 46.3486 42.9842 46.1642C42.7764 46.0625 42.5523 45.9939 42.3371 45.9071C42.0427 45.7885 41.7487 45.669 41.4566 45.5449C40.9051 45.3166 40.3375 45.1294 39.7585 44.9848C39.7221 44.9755 39.6872 44.9582 39.6345 44.9381C39.6308 44.8709 39.622 44.8037 39.6229 44.736C39.6294 44.2931 39.6411 43.8492 39.6443 43.4068C39.6443 43.1585 39.6373 42.9097 39.6299 42.66C39.6224 42.5113 39.6714 42.3652 39.7668 42.2511C40.0958 41.8483 40.4708 41.5043 40.9693 41.3284C41.43 41.165 41.7776 40.8864 41.9942 40.4388C42.0804 40.261 42.2183 40.1088 42.3138 39.9721C42.503 39.9324 42.5719 40.029 42.6348 40.1293C42.8212 40.4253 43.0075 40.7198 43.1859 41.0208C43.2547 41.1422 43.3522 41.2449 43.4697 41.32C43.8989 41.6038 44.3953 41.769 44.9088 41.7989C45.8452 41.8483 46.7802 41.9197 47.7166 41.9729C48.3991 42.0064 49.0831 41.9526 49.7521 41.8129C50.6014 41.643 51.4488 41.4614 52.2976 41.2882C53.276 41.0885 54.2021 40.7422 55.1092 40.3347C55.767 40.0393 56.4365 39.7746 57.1162 39.5343C57.8686 39.2682 58.6206 38.9989 59.3622 38.7058C59.9749 38.464 60.5735 38.1854 61.1764 37.9217C61.5025 37.7817 61.8328 37.6416 62.1547 37.4876C62.4145 37.3666 62.6664 37.2295 62.909 37.0769C63.503 36.6914 63.8207 36.1434 63.8407 35.4246C63.8473 35.1376 63.8626 34.851 63.8822 34.5649C63.8943 34.4855 63.9138 34.4074 63.9404 34.3316C64.1268 34.2643 64.2917 34.2004 64.4599 34.1449C64.5121 34.1275 64.5681 34.125 64.6217 34.1375C64.6753 34.15 64.7244 34.1771 64.7637 34.2158C65.0669 34.4926 65.38 34.76 65.6637 35.0559C66.3192 35.7402 66.9524 36.4449 67.6512 37.0881C68.0672 37.4722 68.4604 37.8815 68.8625 38.2792C69.3768 38.7855 69.891 39.292 70.405 39.7989C70.6477 40.0393 70.8811 40.289 71.1248 40.5279C71.34 40.7389 71.5716 40.9312 71.7435 41.1865C71.9424 41.481 72.2457 41.5398 72.5695 41.4712C72.9636 41.3872 73.2897 41.1842 73.5012 40.8308C73.5737 40.7104 73.6211 40.5766 73.6406 40.4373C73.6601 40.2981 73.6512 40.1563 73.6144 40.0206C73.595 39.9321 73.5514 39.8508 73.4886 39.7857C73.4258 39.7206 73.3461 39.6743 73.2585 39.6519C72.9026 39.5506 72.6375 39.3088 72.358 39.0918C72.1451 38.9252 71.9298 38.7562 71.7989 38.506C71.7756 38.4594 71.7202 38.4337 71.6792 38.3992C71.4653 38.2204 71.2478 38.0468 71.0381 37.8633C70.6473 37.5212 70.2606 37.1744 69.8734 36.8291C69.837 36.8004 69.8026 36.7692 69.7705 36.7357C69.2221 36.0865 68.5946 35.5222 67.9228 35.0088C67.709 34.844 67.5226 34.6438 67.3279 34.4557C67.0208 34.1593 66.7176 33.8592 66.404 33.5526C66.3621 33.4364 66.4143 33.3374 66.5019 33.2501C66.8233 32.9281 67.1727 32.6508 67.6265 32.5384C67.8571 32.4814 68.0532 32.3582 68.241 32.2168C68.445 32.0632 68.6472 31.9036 68.8643 31.7692C69.0313 31.6722 69.2062 31.5894 69.3871 31.5218C69.9056 31.3104 70.3449 31.0182 70.5457 30.4577C70.6165 30.2607 70.7022 30.0689 70.7917 29.8794C70.8569 29.7393 70.9398 29.6101 71.0246 29.4556C71.1345 29.4702 71.2434 29.4916 71.3507 29.5195C71.7234 29.6437 72.0961 29.7758 72.4689 29.9055C72.7395 29.9988 73.0083 30.0997 73.2813 30.1879C73.5837 30.2854 73.8907 30.369 74.1935 30.4647C74.3999 30.53 74.6035 30.6047 74.808 30.6765C75.3494 30.8632 75.8917 31.0499 76.4321 31.2427C77.355 31.5633 78.277 31.8845 79.1948 32.2168C79.6606 32.3853 80.1214 32.5701 80.5812 32.7559C80.7225 32.8187 80.8596 32.8906 80.9917 32.971C81.2866 33.1367 81.5041 33.0933 81.6905 32.8133C81.7551 32.7165 81.806 32.6113 81.8419 32.5006C81.9579 32.144 82.0282 31.7771 81.9891 31.4005C81.977 31.2735 81.9313 31.1494 81.8959 31.0126C81.7688 30.9855 81.6658 30.9561 81.5605 30.9426C81.3467 30.9151 81.1314 30.9001 80.9176 30.873C80.6954 30.8451 80.4797 30.7786 80.2803 30.6765C80.1977 30.6331 80.1094 30.6017 80.018 30.5832C79.3611 30.4623 78.7503 30.1851 78.1079 30.0194C77.8838 29.962 77.6704 29.8644 77.4491 29.7958C76.8509 29.6091 76.2495 29.4369 75.6527 29.2479C75.041 29.0546 74.4349 28.8446 73.8241 28.6495C73.4337 28.5249 73.0377 28.4161 72.6468 28.2943C72.3887 28.2131 72.1331 28.1241 71.88 28.0274C71.6107 27.9237 71.566 27.8253 71.6633 27.5644C71.8264 27.1284 71.9895 26.6925 72.235 26.2925C72.3407 26.1116 72.4806 25.953 72.6468 25.8258C72.7858 25.7141 72.911 25.586 73.0195 25.4444C73.0789 25.3715 73.1207 25.2857 73.1416 25.1939C73.1624 25.1021 73.1618 25.0067 73.1397 24.9152C73.0125 24.6454 72.6962 24.6239 72.4768 24.4316C72.529 24.3191 72.5883 24.21 72.6543 24.1049C72.8802 23.7889 72.7009 23.3908 72.5061 23.2214C72.3351 23.072 72.1562 23.072 71.9881 23.2373C71.7113 23.5094 71.4523 23.8001 71.169 24.0648C70.8294 24.3826 70.473 24.6818 70.1222 24.9875C70.0931 25.0051 70.0617 25.0188 70.029 25.0281C69.9927 24.9724 69.9718 24.908 69.9686 24.8416C69.9654 24.7751 69.98 24.709 70.0109 24.6501C70.2009 24.314 70.3836 23.9672 70.7027 23.7283C70.8954 23.5839 71.0479 23.3923 71.1453 23.1719C71.3316 22.7518 71.0358 22.3369 70.5657 22.3696C69.9564 22.8107 69.3624 23.2821 68.8643 23.8589C68.6626 23.872 68.4777 23.8879 68.2927 23.8954C67.9651 23.9023 67.645 23.9945 67.3637 24.1628C67.0474 24.3616 66.9039 24.6995 66.8881 25.0781C66.8732 25.443 66.8569 25.8066 66.7194 26.1516C66.691 26.2225 66.664 26.2916 66.6286 26.3849C66.5501 26.3766 66.4723 26.3631 66.3956 26.3443C65.8804 26.1772 65.3665 26.0055 64.8508 25.8379C64.4781 25.7161 64.1054 25.5644 63.7224 25.4888C63.3702 25.4197 63.0497 25.2652 62.7026 25.1915C62.0669 25.0593 61.4435 24.8735 60.8391 24.6361C60.7383 24.5877 60.6406 24.5332 60.5465 24.4727C59.9772 24.5002 59.4577 24.2281 58.9211 24.0088C58.6066 23.8799 58.2814 23.7754 57.9632 23.6564C57.7685 23.5826 57.5775 23.4996 57.3864 23.4165C57.2732 23.3675 57.1637 23.3105 57.0603 23.2615C56.8516 23.3213 56.6755 23.2909 56.4836 23.22C56.1141 23.0832 55.7302 22.9866 55.3515 22.8769C55.2057 22.8345 55.044 22.8242 54.9322 22.6506C54.9664 22.564 55.0079 22.4805 55.0561 22.4009C55.1852 22.2193 55.2392 22.0275 55.1898 21.8067C55.147 21.6167 55.2043 21.4646 55.3352 21.3185C55.5248 21.1066 55.5555 20.9825 55.5383 20.7066C55.3547 20.4625 55.1027 20.2674 54.8693 20.0532C54.6541 19.8634 54.449 19.6624 54.2548 19.4511C54.1595 19.3389 54.0943 19.2043 54.0652 19.06C54.0111 18.7879 54.0018 18.5069 53.9594 18.232C53.8663 17.629 53.9478 17.0217 53.9086 16.4178C53.91 16.3787 53.9139 16.3397 53.9203 16.3011C54.0601 16.2166 54.2119 16.1256 54.3573 16.0379C54.4766 15.7177 54.1532 15.5669 54.0936 15.2962C54.1486 15.2187 54.2096 15.1305 54.272 15.0437C54.4654 14.7735 54.4584 14.6101 54.2334 14.3585C54.1257 14.2377 54.0167 14.1182 53.9045 13.9936C53.9273 13.7532 53.951 13.5268 53.9711 13.286L53.6892 13.2575C53.5606 13.0241 53.4237 12.7772 53.2811 12.5205C53.1166 12.5168 52.9713 12.5061 52.8264 12.5121C52.7728 12.5178 52.7188 12.5091 52.6696 12.487C52.6205 12.4648 52.5782 12.43 52.5469 12.3861C52.4365 12.233 52.3507 12.0659 52.3396 11.8755C52.326 11.5564 52.2508 11.2428 52.1183 10.9523C51.9785 10.6597 51.7949 10.3885 51.6254 10.1122C51.6042 10.0688 51.568 10.0345 51.5236 10.0158C51.4791 9.99697 51.4294 9.99491 51.3836 10.01C51.3379 10.0224 51.2972 10.0489 51.2674 10.0858C51.2375 10.1226 51.22 10.168 51.2173 10.2153C51.2056 10.3619 51.2126 10.5098 51.2121 10.6573V10.9145C51.0957 10.9215 51.0393 10.8524 50.9792 10.8011C50.7644 10.6228 50.5552 10.4375 50.3381 10.2625C50.2428 10.1832 50.1375 10.1167 50.0251 10.0646C49.9538 10.0338 49.8625 10.0492 49.7982 10.045C49.6286 10.2116 49.6985 10.3647 49.7665 10.5145C49.8788 10.7619 49.9967 11.0065 50.1089 11.2538C50.1299 11.312 50.1467 11.3716 50.1592 11.4321C50.1036 11.4379 50.0476 11.4379 49.992 11.4321C49.4436 11.2991 48.8967 11.1605 48.3474 11.0303C48.2261 11.0038 48.1022 10.9903 47.978 10.9901C47.5829 10.9826 47.186 10.9658 46.7923 10.9864C46.564 10.9985 46.34 11.0825 46.1117 11.1203C45.8075 11.1712 45.5023 11.2249 45.1948 11.2464C44.905 11.2664 44.6549 11.3798 44.4112 11.5152C44.2564 11.6038 44.1079 11.703 43.9668 11.812C43.9031 11.8554 43.8565 11.9196 43.8349 11.9936C43.8 12.2036 43.656 12.3133 43.4958 12.4137C43.3355 12.514 43.1622 12.6116 42.9977 12.7138C42.9255 12.759 42.8562 12.8089 42.7904 12.8631C42.6115 13.0092 42.4345 13.1572 42.4969 13.3681C42.3339 13.6015 42.2053 13.7924 42.0702 13.9777C42.0301 14.0328 41.9672 14.071 41.9201 14.1205C41.7939 14.2559 41.6499 14.3805 41.5507 14.534C41.3946 14.7749 41.4408 15.0082 41.6439 15.2061C41.7152 15.2747 41.7888 15.341 41.8568 15.404C41.8158 15.5987 41.6895 15.7083 41.5614 15.8036C41.3827 15.9418 41.2399 16.1211 41.1449 16.3263C40.9586 16.6997 40.7735 17.0754 40.5896 17.4535C40.5659 17.5107 40.5456 17.5693 40.529 17.629C40.564 17.6803 40.5905 17.7274 40.6222 17.769C40.7895 17.9827 40.9269 18.2182 41.0308 18.4691C41.1449 18.7244 41.1039 18.9288 40.9101 19.1225C40.7401 19.2929 40.5873 19.4796 40.4223 19.6546C40.3222 19.7534 40.2641 19.8872 40.2602 20.028C40.2525 20.1042 40.2346 20.1791 40.2071 20.2506C40.1931 20.2945 40.1605 20.3328 40.1461 20.3762C40.0678 20.5867 40.0063 20.8116 40.1852 20.9895C40.3641 21.1673 40.5938 21.2695 40.8635 21.1841C40.8981 21.1747 40.9333 21.168 40.9688 21.164C41.2586 21.3344 41.5251 21.4907 41.7906 21.6471C41.9015 21.7124 41.9434 21.809 41.9434 21.9388C41.9434 22.2622 41.7017 22.7322 41.2805 22.855C40.6115 23.0487 39.9336 23.1943 39.2535 23.3343C39.0951 23.3665 38.9306 23.3661 38.7689 23.381C38.2308 23.4314 37.6928 23.4795 37.1551 23.5327C36.8933 23.5588 36.6296 23.5794 36.3729 23.6298C36.1595 23.6679 35.9525 23.7358 35.7579 23.8314C35.3675 24.0358 34.9869 24.2622 34.6138 24.4974C34.2532 24.7243 33.9065 24.974 33.5543 25.2143C33.5282 25.2313 33.5036 25.2506 33.4807 25.2718C32.8285 25.8906 32.1176 26.4414 31.5385 27.1387C30.9738 27.8206 30.3901 28.4852 29.8678 29.2012C29.1904 30.1305 28.5857 31.1083 28.0113 32.1029C27.5511 32.8957 27.1679 33.7309 26.8671 34.5971C26.7189 35.0256 26.6654 35.4727 26.622 35.9217C26.5918 36.2377 26.5582 36.5537 26.5144 36.8683C26.4646 37.2281 26.4035 37.5866 26.3434 37.945C26.3285 38.0346 26.2992 38.1219 26.2792 38.1999C26.0723 38.2685 25.9167 38.1877 25.7835 38.0827C25.4317 37.8073 25.0269 37.6267 24.6351 37.4246C24.5169 37.3687 24.3883 37.3383 24.2577 37.3355C23.9712 37.3229 23.6833 37.321 23.3968 37.3355C22.8931 37.3583 22.4478 37.5245 22.0783 37.8862C21.8328 38.1266 21.5933 38.3665 21.4503 38.6862C21.3571 38.8925 21.1559 38.907 20.976 38.9196C20.6753 38.9393 20.3781 38.9954 20.0909 39.0867C19.9758 39.1221 19.8467 39.1133 19.7238 39.1189C19.407 39.1329 19.0892 39.1352 18.7734 39.1618C18.683 39.1697 18.5917 39.2355 18.5129 39.2925C18.4422 39.353 18.3757 39.4183 18.314 39.488C18.0345 39.7536 18.027 40.0999 18 40.4617C18.2902 40.5186 18.5591 40.5597 18.8274 40.5289C19.2667 40.4785 19.6105 40.6507 19.932 40.9167C20.1109 41.0651 20.2931 41.2112 20.4827 41.3452C20.6641 41.4672 20.8764 41.5351 21.0948 41.5407C21.6977 41.5772 22.2665 41.4721 22.7986 41.1744C22.9691 41.081 23.0995 40.9625 23.1685 40.7762C23.2085 40.6668 23.2581 40.561 23.3166 40.4603C23.3626 40.3714 23.4236 40.2911 23.4969 40.2232C23.7231 40.0416 23.9839 39.9082 24.2633 39.8311C24.8978 39.9791 25.6334 40.4845 25.838 40.9125C25.8106 40.9717 25.7783 41.0286 25.7415 41.0824C25.4699 41.4259 25.2757 41.8157 25.0763 42.2026C24.9328 42.4775 24.773 42.7445 24.6253 43.017C24.5661 43.1258 24.5214 43.242 24.466 43.3526C24.3509 43.5808 24.233 43.8072 24.1161 44.0364C23.9479 44.372 23.8547 44.7314 23.7853 45.0987C23.7464 45.3273 23.6941 45.5534 23.6288 45.7759C23.4969 46.196 23.4424 46.623 23.4042 47.0576C23.3576 47.5392 23.3837 48.0195 23.3753 48.5002C23.3558 49.6027 23.7163 50.5679 24.3187 51.4701C24.7235 52.0904 25.2775 52.5987 25.9297 52.9482C26.1748 53.0794 26.3691 53.2656 26.472 53.534C26.5447 53.7154 26.5537 53.9162 26.4977 54.1034C26.3793 54.5109 26.165 54.8716 25.954 55.2334C25.7888 55.5065 25.6967 55.8177 25.6866 56.137C25.6772 56.4231 25.64 56.7082 25.6083 56.9934C25.5873 57.1913 25.5845 57.3799 25.7331 57.5414C25.8068 57.6217 25.8012 57.7281 25.7751 57.8298C25.7615 57.8826 25.7417 57.9335 25.7159 57.9815C25.5165 58.3386 25.5053 58.7222 25.5487 59.1147C25.5654 59.2674 25.6139 59.4055 25.735 59.5017C26.0742 59.7663 26.3598 60.0701 26.5517 60.4655C26.6337 60.6344 26.7884 60.7684 26.9137 60.9224C26.9104 60.9523 26.9029 60.9815 26.8913 61.0092C26.6169 61.4633 26.6686 61.9469 26.7651 62.4332C26.8326 62.7735 27.0479 63.0176 27.3125 63.2178C27.4515 63.3178 27.5591 63.4554 27.6228 63.6145C27.6342 63.6433 27.6477 63.6713 27.6633 63.6981C27.8427 64.0117 27.9708 64.3333 27.9316 64.71C27.9194 64.8429 27.9353 64.977 27.9782 65.1034C28.0211 65.2299 28.0902 65.3458 28.1809 65.4437C28.1175 65.7704 28.0579 66.0738 28.0006 66.3771C27.9812 66.4682 27.967 66.5603 27.9582 66.653C27.9116 67.2523 27.62 67.747 27.2761 68.2086C26.9612 68.6315 26.5969 69.0165 26.2722 69.4315C26.0192 69.7549 25.789 70.0966 25.5561 70.4349C25.2491 70.8811 25.2533 71.3717 25.3926 71.866C25.4636 72.1041 25.5588 72.3343 25.6768 72.553C26.0551 73.2746 26.459 73.9835 26.8275 74.7102C27.0236 75.0958 27.1718 75.5065 27.3339 75.9093C27.4588 76.2183 27.5813 76.5291 27.687 76.8428C27.8077 77.2026 27.8986 77.5727 28.0211 77.9321C28.213 78.4922 28.2517 79.0854 28.3751 79.659C28.4502 80.0072 28.5433 80.3521 28.6463 80.6933C28.7208 80.9402 28.7907 81.1825 28.7688 81.4452C28.76 81.5927 28.76 81.7406 28.7688 81.8882C28.7846 82.2382 28.7281 82.5878 28.603 82.915C28.3924 83.4606 28.5019 83.9843 28.6756 84.507C28.7362 84.6895 28.8694 84.8244 29.0195 84.9383C29.3092 85.1572 29.6409 85.2846 29.9964 85.3929ZM46.3954 34.8828C46.4364 34.7031 46.4998 34.4954 46.5291 34.2835C46.5682 33.9978 46.7094 33.7509 46.8478 33.519C47.0433 33.2021 47.2741 32.9085 47.5359 32.6438C47.8466 32.3213 48.1634 31.9974 48.5664 31.7799C48.6787 31.7129 48.7876 31.6401 48.8925 31.5619C49.1981 31.6525 49.4725 31.7318 49.7455 31.8163C49.8333 31.8448 49.9194 31.8785 50.0032 31.9171C50.3759 32.0847 50.7486 32.2634 51.1255 32.4203C51.4246 32.5444 51.7311 32.6448 52.0391 32.7535C52.5408 32.9318 53.0454 33.104 53.5453 33.2884C53.7264 33.3557 53.9017 33.4378 54.0694 33.5339C54.3913 33.7178 54.7183 33.898 55.0184 34.115C55.2025 34.2555 55.4067 34.3676 55.624 34.4473C55.9306 34.5519 56.2441 34.634 56.5502 34.7423C56.9956 34.8972 57.4386 35.0578 57.905 35.1404C57.9981 35.1567 58.0913 35.1838 58.1961 35.2095C58.1774 35.2576 58.1457 35.2996 58.1046 35.3309C58.0635 35.3621 58.0145 35.3813 57.9632 35.3864C57.7209 35.433 57.4792 35.4867 57.2355 35.5222C56.8074 35.5848 56.3883 35.698 55.9869 35.8596C55.7074 35.9721 55.4223 36.0655 55.139 36.164C54.6103 36.3479 54.0624 36.4627 53.5029 36.4552C52.8138 36.4463 52.1248 36.4085 51.4372 36.3619C51.1227 36.3404 50.7989 36.3044 50.5054 36.2046C50.1992 36.0996 49.8849 36.0201 49.5657 35.967C49.3533 35.932 49.1501 35.8386 48.9377 35.8111C48.5706 35.7644 48.1997 35.7378 47.8298 35.7178C47.2317 35.6907 46.7234 35.5068 46.3968 34.8828H46.3954ZM60.11 29.7608C59.8328 29.8075 59.5831 29.8234 59.3413 29.723C58.9597 29.5624 58.5322 29.5495 58.1416 29.6866C58.0691 29.7125 57.9937 29.7295 57.9171 29.737C57.5393 29.7627 57.1614 29.7907 56.7827 29.8C56.6441 29.7982 56.5069 29.7734 56.3764 29.7267C56.1864 29.6623 55.9998 29.5882 55.8174 29.5046C55.6273 29.4201 55.4242 29.3492 55.2583 29.2283C54.9914 29.0327 54.6853 28.9254 54.3913 28.7947C54.0973 28.664 53.7898 28.5968 53.4963 28.4796C53.0412 28.299 52.6424 28.0451 52.4202 27.5779C52.3323 27.3963 52.2335 27.2201 52.1243 27.0505C51.8961 26.6974 51.5974 26.3955 51.2471 26.1637C51.167 26.1018 51.0904 26.0354 51.0179 25.9649C51.0921 25.9289 51.169 25.899 51.248 25.8752C51.6044 25.808 51.9636 25.7548 52.3195 25.6797C52.664 25.6066 53.007 25.5219 53.3487 25.4258C53.4847 25.3912 53.6109 25.3253 53.7172 25.2335C53.8236 25.1416 53.9071 25.0263 53.9613 24.8965C54.0405 24.7098 54.1071 24.5231 54.1858 24.3201C54.436 24.1222 54.5264 24.1203 54.7668 24.3523C54.9839 24.5623 55.1926 24.7812 55.4004 25.0006C55.5602 25.1686 55.6902 25.374 55.8733 25.5084C56.2697 25.7982 56.6219 26.1357 56.9741 26.4731C57.2537 26.741 57.5202 27.0225 57.7899 27.3007C58.0158 27.534 58.2325 27.7772 58.4631 28.0054C58.8712 28.4087 59.2928 28.7989 59.6958 29.2063C59.8472 29.3576 60.0229 29.4971 60.11 29.7608ZM56.2558 24.3387C56.3541 24.2725 56.4421 24.3131 56.5194 24.3579C56.7785 24.5082 57.0636 24.5796 57.3506 24.6468C57.7349 24.7369 58.1188 24.8204 58.4869 24.9735C58.7925 25.1019 59.1181 25.1821 59.4345 25.2848C59.5812 25.3315 59.7289 25.3782 59.8738 25.4328C60.369 25.612 60.8624 25.7954 61.3581 25.9728C61.5328 26.0353 61.7135 26.0801 61.8887 26.1422C62.5456 26.3753 63.2019 26.6105 63.8575 26.8479C64.0177 26.906 64.1744 26.973 64.3271 27.0486C64.3956 27.0832 64.4478 27.1504 64.5447 27.2353C64.4329 27.282 64.3691 27.3287 64.2996 27.3403C63.933 27.3996 63.5663 27.4626 63.1969 27.4999C63.0068 27.5191 62.8354 27.555 62.6756 27.6661C62.489 27.8042 62.2911 27.9261 62.0839 28.0306C61.8434 28.1374 61.6175 28.2744 61.4116 28.4386C61.2952 28.5342 61.1936 28.6635 61.0035 28.685C60.9404 28.6369 60.88 28.5851 60.8228 28.53C60.6389 28.3301 60.4315 28.1533 60.205 28.0036C60.089 27.9298 59.994 27.8225 59.8915 27.7277C59.8179 27.6596 59.7485 27.5877 59.6758 27.5163C59.1326 26.9963 58.5157 26.5599 57.9865 26.0227C57.5458 25.5756 57.0897 25.1439 56.6401 24.7061C56.5166 24.5889 56.3951 24.4722 56.2558 24.3387ZM66.3039 27.6992C66.2978 27.7725 66.2973 27.8486 66.2843 27.9223C66.2377 28.1734 66.1618 28.4222 66.1473 28.6747C66.1194 29.1471 65.9316 29.5074 65.5216 29.7482C65.4951 29.7636 65.4751 29.7898 65.449 29.8061C65.3031 29.8994 65.1294 29.8724 64.9775 29.7221C65.0609 29.6852 65.1387 29.6586 65.2104 29.6185C65.3441 29.5433 65.49 29.4784 65.6008 29.3767C65.7895 29.2026 65.7625 28.9963 65.5543 28.8479C65.5053 28.8124 65.4536 28.7797 65.4145 28.7545C65.3679 28.6406 65.4229 28.5748 65.4746 28.5058C65.546 28.4242 65.6085 28.3351 65.6609 28.2402C65.7686 28.0068 65.6954 27.8365 65.4597 27.7366C65.3954 27.7095 65.3269 27.6922 65.2645 27.6624C65.1597 27.612 65.0567 27.5564 65.0232 27.4323C65.0623 27.2922 65.1606 27.3002 65.264 27.3324C65.5668 27.4257 65.869 27.521 66.1706 27.618C66.2179 27.6401 66.2626 27.6674 66.3039 27.6992ZM64.5051 29.7062L63.8971 30.2509H63.0856C62.893 30.1714 62.7186 30.0534 62.5731 29.9041C62.7851 29.6026 63.0245 29.3907 63.4061 29.429C63.5299 29.4359 63.6532 29.4494 63.7755 29.4696C64.0071 29.5186 64.2503 29.5442 64.5051 29.7076V29.7062Z" fill="black"/>
</svg>
